# xmcd CD database file
#
# Track frame offsets:
#	150
#	22645
#	43827
#
# Disc length: 943 seconds
#
# Revision: 0
# Processed by: cddbd v1.5.1PL0 Copyright (c) Steve Scherf et al.
# Submitted via: CDex 1.51
#
DISCID=1703ad03
DTITLE=レッキンクルー - ブンブン！？？！
DYEAR=2001
DGENRE=Hip-Hop
TTITLE0=ブンブン！？？！
TTITLE1=3D TRIBE VER.9.1
TTITLE2=湯煙FUNK
EXTD=YEAR: 2001
EXTT0=
EXTT1=
EXTT2=
PLAYORDER=
